<svg width="218" height="155" viewBox="0 0 218 155" fill="none" xmlns="http://www.w3.org/2000/svg">
<path d="M15.9091 91.2727V84L74.4545 54.1818V65.8182L29.5455 87.4545L29.9091 86.7273V88.5455L29.5455 87.8182L74.4545 109.455V121.091L15.9091 91.2727ZM130.102 26.5454L100.102 138H90.2841L120.284 26.5454H130.102ZM204.455 91.2727L145.909 121.091V109.455L190.818 87.8182L190.455 88.5455V86.7273L190.818 87.4545L145.909 65.8182V54.1818L204.455 84V91.2727Z" fill="white"/>
<path d="M12.9091 91.2727V84L71.4545 54.1818V65.8182L26.5455 87.4545L26.9091 86.7273V88.5455L26.5455 87.8182L71.4545 109.455V121.091L12.9091 91.2727ZM127.102 26.5454L97.1023 138H87.2841L117.284 26.5454H127.102ZM201.455 91.2727L142.909 121.091V109.455L187.818 87.8182L187.455 88.5455V86.7273L187.818 87.4545L142.909 65.8182V54.1818L201.455 84V91.2727Z" fill="#6448FF"/>
</svg>
